<svg xmlns="http://www.w3.org/2000/svg" xmlns:xlink="http://www.w3.org/1999/xlink" width="500" zoomAndPan="magnify" viewBox="0 0 375 374.999991" height="500" preserveAspectRatio="xMidYMid meet" version="1.0"><defs><g/><clipPath id="40862ed570"><path d="M 126 91.601562 L 249 91.601562 L 249 219.101562 L 126 219.101562 Z M 126 91.601562 " clip-rule="nonzero"/></clipPath></defs><g clip-path="url(#40862ed570)"><path fill="#106233" d="M 242.050781 143.003906 C 237.53125 137.1875 230.792969 129.984375 221.953125 124.484375 C 226.75 118.46875 234.164062 113.207031 241.855469 113.878906 L 244.390625 114.078125 C 245.542969 116.53125 246.570312 119.339844 247.324219 122.625 C 241.535156 120.171875 235.988281 121.953125 235.988281 121.953125 C 239.515625 122.863281 245.304688 126.066406 248.316406 128.441406 C 248.753906 132.28125 248.832031 136.554688 248.394531 141.382812 C 246.335938 138.453125 243.359375 135.128906 239.316406 132.476562 C 239.316406 132.476562 240.902344 137.148438 242.011719 143.003906 Z M 126.445312 219.101562 C 136.632812 193.851562 128.664062 181.03125 127 164.253906 L 136.515625 159.425781 L 126.722656 157.089844 C 126.839844 153.253906 127.355469 149.175781 128.585938 144.625 C 137.824219 109.605469 169.894531 89.78125 203.359375 91.71875 L 198.164062 103.351562 C 202.84375 97.695312 208.394531 91.757812 215.964844 93.460938 C 226.988281 95.953125 235.589844 100.898438 242.328125 109.289062 C 238.484375 108.972656 232.023438 109.960938 225.640625 114.589844 C 221.355469 112.730469 216.28125 111.308594 210.453125 110.792969 C 192.296875 109.128906 176.238281 113.484375 164.070312 122.863281 C 135.601562 148.78125 146.308594 168.171875 140.003906 193.0625 C 145.355469 185.1875 145 169.953125 147.140625 159.78125 C 150.152344 145.535156 157.171875 134.296875 167.042969 126.699219 C 178.222656 118.074219 193.128906 114.078125 210.019531 115.621094 C 214.300781 116.015625 218.105469 116.925781 221.476562 118.152344 C 219.574219 120.050781 217.710938 122.386719 215.964844 125.117188 L 223.578125 132.320312 C 225.441406 134.101562 225.957031 136.75 226.113281 139.363281 C 226.390625 144.070312 226.828125 149.019531 229.601562 153.054688 L 232.894531 157.882812 L 233.964844 164.410156 L 226.195312 170.980469 L 220.167969 170.03125 C 219.453125 167.578125 219.253906 164.769531 213.902344 162.117188 C 209.265625 159.820312 202.566406 158.554688 198.003906 155.308594 C 191.78125 150.839844 190.394531 138.730469 197.6875 135.5625 C 182.898438 140.195312 189.164062 161.007812 195.308594 170.625 C 201.335938 180.042969 209.898438 185.464844 218.742188 195.554688 C 224.925781 202.597656 227.105469 210.59375 225.957031 219.21875 L 126.523438 219.21875 Z M 126.445312 219.101562 " fill-opacity="1" fill-rule="evenodd"/></g><g fill="#d9d9d9" fill-opacity="1"><g transform="translate(73.459674, 253.886863)"><g><path d="M 15.625 -3.09375 C 14.957031 -2.03125 14.035156 -1.207031 12.859375 -0.625 C 11.691406 -0.0507812 10.390625 0.234375 8.953125 0.234375 C 7.203125 0.234375 5.695312 -0.0703125 4.4375 -0.6875 C 3.1875 -1.300781 2.234375 -2.1875 1.578125 -3.34375 C 0.921875 -4.5 0.59375 -5.875 0.59375 -7.46875 C 0.59375 -9.144531 0.953125 -10.601562 1.671875 -11.84375 C 2.398438 -13.09375 3.414062 -14.066406 4.71875 -14.765625 C 6.019531 -15.460938 7.535156 -15.8125 9.265625 -15.8125 C 10.785156 -15.8125 12.066406 -15.539062 13.109375 -15 C 14.148438 -14.46875 15 -13.644531 15.65625 -12.53125 L 12.34375 -10.1875 C 12.0625 -10.726562 11.628906 -11.15625 11.046875 -11.46875 C 10.460938 -11.78125 9.816406 -11.9375 9.109375 -11.9375 C 7.816406 -11.957031 6.816406 -11.5625 6.109375 -10.75 C 5.398438 -9.9375 5.046875 -8.878906 5.046875 -7.578125 C 5.046875 -6.328125 5.367188 -5.351562 6.015625 -4.65625 C 6.671875 -3.96875 7.660156 -3.625 8.984375 -3.625 C 10.503906 -3.625 11.644531 -4.28125 12.40625 -5.59375 Z M 15.625 -3.09375 "/></g></g></g><g fill="#d9d9d9" fill-opacity="1"><g transform="translate(95.872317, 253.886863)"><g><path d="M 8.6875 0.21875 C 7.007812 0.226562 5.5625 -0.0703125 4.34375 -0.6875 C 3.132812 -1.300781 2.207031 -2.1875 1.5625 -3.34375 C 0.914062 -4.5 0.59375 -5.890625 0.59375 -7.515625 C 0.59375 -9.179688 0.941406 -10.632812 1.640625 -11.875 C 2.347656 -13.125 3.328125 -14.09375 4.578125 -14.78125 C 5.835938 -15.46875 7.3125 -15.8125 9 -15.8125 C 10.539062 -15.8125 11.882812 -15.488281 13.03125 -14.84375 C 14.175781 -14.195312 15.066406 -13.296875 15.703125 -12.140625 C 16.335938 -10.992188 16.65625 -9.644531 16.65625 -8.09375 C 16.65625 -6.457031 16.320312 -5.015625 15.65625 -3.765625 C 15 -2.523438 14.066406 -1.550781 12.859375 -0.84375 C 11.660156 -0.144531 10.269531 0.207031 8.6875 0.21875 Z M 8.578125 -3.625 C 9.710938 -3.625 10.609375 -4.019531 11.265625 -4.8125 C 11.921875 -5.613281 12.25 -6.679688 12.25 -8.015625 C 12.25 -9.210938 11.9375 -10.171875 11.3125 -10.890625 C 10.695312 -11.609375 9.867188 -11.96875 8.828125 -11.96875 C 8.066406 -11.96875 7.398438 -11.78125 6.828125 -11.40625 C 6.253906 -11.03125 5.8125 -10.515625 5.5 -9.859375 C 5.1875 -9.210938 5.03125 -8.46875 5.03125 -7.625 C 5.03125 -6.363281 5.34375 -5.378906 5.96875 -4.671875 C 6.601562 -3.972656 7.472656 -3.625 8.578125 -3.625 Z M 8.578125 -3.625 "/></g></g></g><g fill="#d9d9d9" fill-opacity="1"><g transform="translate(120.326232, 253.886863)"><g><path d="M 15.0625 -4.046875 L 16.0625 -0.65625 C 15.71875 -0.375 15.25 -0.148438 14.65625 0.015625 C 14.070312 0.179688 13.484375 0.265625 12.890625 0.265625 C 11.734375 0.265625 10.773438 0.0507812 10.015625 -0.375 C 9.253906 -0.800781 8.640625 -1.398438 8.171875 -2.171875 L 6.71875 -4.609375 C 6.539062 -4.898438 6.367188 -5.117188 6.203125 -5.265625 C 6.046875 -5.410156 5.851562 -5.503906 5.625 -5.546875 L 5.625 0 L 1.3125 0 L 1.3125 -15.59375 L 6.578125 -15.59375 C 8.984375 -15.59375 10.757812 -15.132812 11.90625 -14.21875 C 13.0625 -13.3125 13.640625 -12.054688 13.640625 -10.453125 C 13.640625 -9.304688 13.304688 -8.351562 12.640625 -7.59375 C 11.984375 -6.84375 11.113281 -6.316406 10.03125 -6.015625 C 10.582031 -5.835938 11.019531 -5.507812 11.34375 -5.03125 L 11.75 -4.4375 C 12.113281 -3.863281 12.675781 -3.578125 13.4375 -3.578125 C 13.71875 -3.578125 13.992188 -3.609375 14.265625 -3.671875 C 14.535156 -3.742188 14.800781 -3.867188 15.0625 -4.046875 Z M 6.546875 -12.046875 L 5.625 -12.046875 L 5.625 -8.953125 L 6.734375 -8.953125 C 7.691406 -8.953125 8.351562 -9.078125 8.71875 -9.328125 C 9.09375 -9.585938 9.28125 -9.988281 9.28125 -10.53125 C 9.28125 -11.125 9.023438 -11.523438 8.515625 -11.734375 C 8.015625 -11.941406 7.359375 -12.046875 6.546875 -12.046875 Z M 6.546875 -12.046875 "/></g></g></g><g fill="#d9d9d9" fill-opacity="1"><g transform="translate(142.585224, 253.886863)"><g/></g></g><g fill="#d9d9d9" fill-opacity="1"><g transform="translate(155.537749, 253.886863)"><g><path d="M 12.6875 -11.828125 L 5.640625 -11.828125 L 5.640625 -9.703125 L 12.125 -9.703125 L 12.125 -5.953125 L 5.640625 -5.953125 L 5.640625 -3.75 L 12.859375 -3.75 L 12.59375 0 L 1.3125 0 L 1.3125 -15.59375 L 12.6875 -15.59375 Z M 12.6875 -11.828125 "/></g></g></g><g fill="#d9d9d9" fill-opacity="1"><g transform="translate(175.799364, 253.886863)"><g><path d="M 16.296875 1.015625 C 16.160156 2.285156 15.675781 3.203125 14.84375 3.765625 C 14.007812 4.335938 12.984375 4.625 11.765625 4.625 C 10.648438 4.625 9.710938 4.425781 8.953125 4.03125 C 8.191406 3.644531 7.613281 3.109375 7.21875 2.421875 C 6.820312 1.734375 6.609375 0.941406 6.578125 0.046875 C 4.691406 -0.296875 3.222656 -1.117188 2.171875 -2.421875 C 1.117188 -3.734375 0.59375 -5.429688 0.59375 -7.515625 C 0.59375 -9.179688 0.941406 -10.632812 1.640625 -11.875 C 2.347656 -13.125 3.328125 -14.09375 4.578125 -14.78125 C 5.835938 -15.46875 7.3125 -15.8125 9 -15.8125 C 10.539062 -15.8125 11.882812 -15.488281 13.03125 -14.84375 C 14.175781 -14.195312 15.066406 -13.296875 15.703125 -12.140625 C 16.335938 -10.992188 16.65625 -9.644531 16.65625 -8.09375 C 16.65625 -6.71875 16.414062 -5.484375 15.9375 -4.390625 C 15.46875 -3.296875 14.796875 -2.375 13.921875 -1.625 C 13.054688 -0.875 12.035156 -0.347656 10.859375 -0.046875 L 10.859375 0.21875 C 10.859375 0.5 10.953125 0.734375 11.140625 0.921875 C 11.328125 1.109375 11.585938 1.203125 11.921875 1.203125 C 12.140625 1.203125 12.320312 1.15625 12.46875 1.0625 C 12.625 0.96875 12.71875 0.804688 12.75 0.578125 Z M 8.578125 -3.625 C 9.710938 -3.625 10.609375 -4.019531 11.265625 -4.8125 C 11.921875 -5.613281 12.25 -6.679688 12.25 -8.015625 C 12.25 -9.210938 11.9375 -10.171875 11.3125 -10.890625 C 10.695312 -11.609375 9.867188 -11.96875 8.828125 -11.96875 C 8.066406 -11.96875 7.398438 -11.78125 6.828125 -11.40625 C 6.253906 -11.03125 5.8125 -10.515625 5.5 -9.859375 C 5.1875 -9.210938 5.03125 -8.46875 5.03125 -7.625 C 5.03125 -6.363281 5.34375 -5.378906 5.96875 -4.671875 C 6.601562 -3.972656 7.472656 -3.625 8.578125 -3.625 Z M 8.578125 -3.625 "/></g></g></g><g fill="#d9d9d9" fill-opacity="1"><g transform="translate(200.253281, 253.886863)"><g><path d="M 11.390625 -15.59375 L 15.703125 -15.59375 L 15.734375 -7.046875 C 15.753906 -5.609375 15.460938 -4.34375 14.859375 -3.25 C 14.265625 -2.15625 13.425781 -1.300781 12.34375 -0.6875 C 11.257812 -0.0703125 10 0.234375 8.5625 0.234375 C 6.21875 0.234375 4.410156 -0.347656 3.140625 -1.515625 C 1.878906 -2.679688 1.25 -4.414062 1.25 -6.71875 L 1.25 -15.59375 L 5.640625 -15.59375 L 5.640625 -6.9375 C 5.640625 -5.75 5.910156 -4.898438 6.453125 -4.390625 C 7.003906 -3.878906 7.710938 -3.625 8.578125 -3.625 C 9.484375 -3.625 10.1875 -3.898438 10.6875 -4.453125 C 11.195312 -5.015625 11.445312 -5.929688 11.4375 -7.203125 Z M 11.390625 -15.59375 "/></g></g></g><g fill="#d9d9d9" fill-opacity="1"><g transform="translate(224.443812, 253.886863)"><g><path d="M 1.3125 0 L 1.3125 -15.59375 L 5.703125 -15.59375 L 5.703125 0 Z M 1.3125 0 "/></g></g></g><g fill="#d9d9d9" fill-opacity="1"><g transform="translate(238.66939, 253.886863)"><g><path d="M 11.265625 -15.59375 L 15.484375 -15.59375 L 15.484375 0 L 11.5625 0 L 5.53125 -8.390625 L 5.53125 0 L 1.3125 0 L 1.3125 -15.59375 L 5.21875 -15.59375 L 11.265625 -7.21875 Z M 11.265625 -15.59375 "/></g></g></g><g fill="#d9d9d9" fill-opacity="1"><g transform="translate(262.662373, 253.886863)"><g><path d="M 8.6875 0.21875 C 7.007812 0.226562 5.5625 -0.0703125 4.34375 -0.6875 C 3.132812 -1.300781 2.207031 -2.1875 1.5625 -3.34375 C 0.914062 -4.5 0.59375 -5.890625 0.59375 -7.515625 C 0.59375 -9.179688 0.941406 -10.632812 1.640625 -11.875 C 2.347656 -13.125 3.328125 -14.09375 4.578125 -14.78125 C 5.835938 -15.46875 7.3125 -15.8125 9 -15.8125 C 10.539062 -15.8125 11.882812 -15.488281 13.03125 -14.84375 C 14.175781 -14.195312 15.066406 -13.296875 15.703125 -12.140625 C 16.335938 -10.992188 16.65625 -9.644531 16.65625 -8.09375 C 16.65625 -6.457031 16.320312 -5.015625 15.65625 -3.765625 C 15 -2.523438 14.066406 -1.550781 12.859375 -0.84375 C 11.660156 -0.144531 10.269531 0.207031 8.6875 0.21875 Z M 8.578125 -3.625 C 9.710938 -3.625 10.609375 -4.019531 11.265625 -4.8125 C 11.921875 -5.613281 12.25 -6.679688 12.25 -8.015625 C 12.25 -9.210938 11.9375 -10.171875 11.3125 -10.890625 C 10.695312 -11.609375 9.867188 -11.96875 8.828125 -11.96875 C 8.066406 -11.96875 7.398438 -11.78125 6.828125 -11.40625 C 6.253906 -11.03125 5.8125 -10.515625 5.5 -9.859375 C 5.1875 -9.210938 5.03125 -8.46875 5.03125 -7.625 C 5.03125 -6.363281 5.34375 -5.378906 5.96875 -4.671875 C 6.601562 -3.972656 7.472656 -3.625 8.578125 -3.625 Z M 8.578125 -3.625 "/></g></g></g><g fill="#d9d9d9" fill-opacity="1"><g transform="translate(287.116278, 253.886863)"><g><path d="M 4.5 0 L -0.234375 0 L 4.765625 -7.84375 L -0.015625 -15.59375 L 4.875 -15.59375 L 7.265625 -11.5 L 9.640625 -15.59375 L 14.296875 -15.59375 L 9.5 -8.09375 L 14.46875 0 L 9.484375 0 L 7.0625 -4.265625 Z M 4.5 0 "/></g></g></g></svg>